<?xml version="1.0" encoding="us-ascii" standalone="no"?>
<svg xmlns="http://www.w3.org/2000/svg" contentStyleType="text/css" height="363px" preserveAspectRatio="none"
     style="width:688px;height:363px;background:#FFFFFF;" version="1.1" viewBox="0 0 688 363" width="688px"
     zoomAndPan="magnify"><defs/><g><!--cluster optimize-to-xes--><g id="cluster_optimize-to-xes"><rect fill="none" height="328.95" rx="2.5" ry="2.5" style="stroke:#181818;stroke-width:1.0;" width="675" x="7" y="7"/><rect fill="none" height="10" style="stroke:#181818;stroke-width:1.0;" width="15" x="662" y="12"/><rect fill="none" height="2" style="stroke:#181818;stroke-width:1.0;" width="4" x="660" y="14"/><rect fill="none" height="2" style="stroke:#181818;stroke-width:1.0;" width="4" x="660" y="18"/><text fill="#000000" font-family="sans-serif" font-size="14" font-style="italic" lengthAdjust="spacing" textLength="113" x="288" y="33.5352">&#171;Maven Module&#187;</text><text fill="#000000" font-family="sans-serif" font-size="14" font-weight="bold" lengthAdjust="spacing" textLength="121" x="284" y="50.0234">optimize-to-xes</text></g><!--cluster XES Mapping--><g id="cluster_XES Mapping"><path d="M225.5,148.97 L318.5,148.97 A3.75,3.75 0 0 1 321,151.47 L328,171.4583 L655.5,171.4583 A2.5,2.5 0 0 1 658,173.9583 L658,260.45 A2.5,2.5 0 0 1 655.5,262.95 L225.5,262.95 A2.5,2.5 0 0 1 223,260.45 L223,151.47 A2.5,2.5 0 0 1 225.5,148.97 " fill="none" style="stroke:#000000;stroke-width:1.5;"/><line style="stroke:#000000;stroke-width:1.5;" x1="223" x2="328" y1="171.4583" y2="171.4583"/><text fill="#000000" font-family="sans-serif" font-size="14" font-weight="bold" lengthAdjust="spacing" textLength="92" x="227" y="164.5052">XES Mapping</text></g><!--entity Optimize--><g id="elem_Optimize"><rect fill="#F1F1F1" height="62.9766" rx="2.5" ry="2.5" style="stroke:#181818;stroke-width:0.5;" width="152" x="52" y="183.97"/><rect fill="#F1F1F1" height="10" style="stroke:#181818;stroke-width:0.5;" width="15" x="184" y="188.97"/><rect fill="#F1F1F1" height="2" style="stroke:#181818;stroke-width:0.5;" width="4" x="182" y="190.97"/><rect fill="#F1F1F1" height="2" style="stroke:#181818;stroke-width:0.5;" width="4" x="182" y="194.97"/><text fill="#000000" font-family="sans-serif" font-size="14" font-style="italic" lengthAdjust="spacing" textLength="70" x="88" y="217.5052">&#171;Package&#187;</text><text fill="#000000" font-family="sans-serif" font-size="14" lengthAdjust="spacing" textLength="112" x="67" y="233.9934">Optimize Export</text></g><!--entity OptimizeToXesApplication--><g id="elem_OptimizeToXesApplication"><rect fill="#F1F1F1" height="62.9766" rx="2.5" ry="2.5" style="stroke:#181818;stroke-width:0.5;" width="222" x="224" y="23"/><rect fill="#F1F1F1" height="10" style="stroke:#181818;stroke-width:0.5;" width="15" x="426" y="28"/><rect fill="#F1F1F1" height="2" style="stroke:#181818;stroke-width:0.5;" width="4" x="424" y="30"/><rect fill="#F1F1F1" height="2" style="stroke:#181818;stroke-width:0.5;" width="4" x="424" y="34"/><text fill="#000000" font-family="sans-serif" font-size="14" font-style="italic" lengthAdjust="spacing" textLength="163" x="248.5" y="56.5352">&#171;CommandLineRunner&#187;</text><text fill="#000000" font-family="sans-serif" font-size="14" lengthAdjust="spacing" textLength="182" x="239" y="73.0234">OptimizeToXesApplication</text></g><text fill="#000000" font-family="sans-serif" font-size="14" lengthAdjust="spacing" textLength="171" x="51" y="355.4852">Camunda 8 Optimize API</text><rect fill="#F1F1F1" height="12" style="stroke:#181818;stroke-width:1.5;" width="12" x="130.5" y="329.95"/><text fill="#000000" font-family="sans-serif" font-size="14" lengthAdjust="spacing" textLength="127" x="265.5" y="355.4852">Deckfour Openxes</text><rect fill="#F1F1F1" height="12" style="stroke:#181818;stroke-width:1.5;" width="12" x="323" y="329.95"/><!--entity XesDefinition--><g id="elem_XesDefinition"><rect fill="#F1F1F1" height="62.9766" rx="2.5" ry="2.5" style="stroke:#181818;stroke-width:0.5;" width="183" x="239.5" y="183.97"/><rect fill="#F1F1F1" height="10" style="stroke:#181818;stroke-width:0.5;" width="15" x="402.5" y="188.97"/><rect fill="#F1F1F1" height="2" style="stroke:#181818;stroke-width:0.5;" width="4" x="400.5" y="190.97"/><rect fill="#F1F1F1" height="2" style="stroke:#181818;stroke-width:0.5;" width="4" x="400.5" y="194.97"/><text fill="#000000" font-family="sans-serif" font-size="14" font-style="italic" lengthAdjust="spacing" textLength="143" x="254.5" y="217.5052">&#171;Extension function&#187;</text><text fill="#000000" font-family="sans-serif" font-size="14" lengthAdjust="spacing" textLength="91" x="280.5" y="233.9934">XesDefinition</text></g><!--entity XesMapperExtension--><g id="elem_XesMapperExtension"><rect fill="#F1F1F1" height="62.9766" rx="2.5" ry="2.5" style="stroke:#181818;stroke-width:0.5;" width="184" x="458" y="183.97"/><rect fill="#F1F1F1" height="10" style="stroke:#181818;stroke-width:0.5;" width="15" x="622" y="188.97"/><rect fill="#F1F1F1" height="2" style="stroke:#181818;stroke-width:0.5;" width="4" x="620" y="190.97"/><rect fill="#F1F1F1" height="2" style="stroke:#181818;stroke-width:0.5;" width="4" x="620" y="194.97"/><text fill="#000000" font-family="sans-serif" font-size="14" font-style="italic" lengthAdjust="spacing" textLength="143" x="473.5" y="217.5052">&#171;Extension function&#187;</text><text fill="#000000" font-family="sans-serif" font-size="14" lengthAdjust="spacing" textLength="144" x="473" y="233.9934">XesMapperExtension</text></g><!--link OptimizeToXesApplication to Optimize--><g id="link_OptimizeToXesApplication_Optimize"><path d="M294.52,86.29 C273.21,102.52 246.66,122.79 223,140.97 C204.81,154.95 189.4532,166.8054 172.4532,179.9754 " fill="none" id="OptimizeToXesApplication-to-Optimize" style="stroke:#181818;stroke-width:1.0;"/><polygon fill="#181818" points="167.71,183.65,177.2745,181.3003,171.6626,180.5879,172.375,174.9761,167.71,183.65" style="stroke:#181818;stroke-width:1.0;"/><text fill="#000000" font-family="sans-serif" font-size="13" lengthAdjust="spacing" textLength="22" x="254" y="129.5384">use</text></g><!--link OptimizeToXesApplication to XesMapperExtension--><g id="link_OptimizeToXesApplication_XesMapperExtension"><path d="M376.71,86.33 C414.69,114.41 465.646,152.0822 503.586,180.1422 " fill="none" id="OptimizeToXesApplication-to-XesMapperExtension" style="stroke:#181818;stroke-width:1.0;"/><polygon fill="#181818" points="508.41,183.71,503.5525,175.1423,504.39,180.7369,498.7955,181.5743,508.41,183.71" style="stroke:#181818;stroke-width:1.0;"/><text fill="#000000" font-family="sans-serif" font-size="13" lengthAdjust="spacing" textLength="22" x="437" y="129.5384">use</text></g><!--link OptimizeToXesApplication to XesDefinition--><g id="link_OptimizeToXesApplication_XesDefinition"><path d="M334.23,86.14 C333.52,114.2 332.6294,149.5219 331.9294,177.6319 " fill="none" id="OptimizeToXesApplication-to-XesDefinition" style="stroke:#181818;stroke-width:1.0;"/><polygon fill="#181818" points="331.78,183.63,336.0028,174.7324,331.9045,178.6315,328.0053,174.5332,331.78,183.63" style="stroke:#181818;stroke-width:1.0;"/><text fill="#000000" font-family="sans-serif" font-size="13" lengthAdjust="spacing" textLength="22" x="334" y="129.5384">use</text></g><!--link Optimize to optimizeRestApi--><g id="link_Optimize_optimizeRestApi"><path d="M130.34,247.28 C132.53,276.08 135.1582,310.647 136.1882,324.287 " fill="none" id="Optimize-to-optimizeRestApi" style="stroke:#181818;stroke-width:1.0;"/><polygon fill="#181818" points="136.64,330.27,139.951,320.9944,136.2635,325.2842,131.9737,321.5967,136.64,330.27" style="stroke:#181818;stroke-width:1.0;"/></g><!--link XesDefinition to Deckfour Openxes--><g id="link_XesDefinition_Deckfour Openxes"><path d="M330.48,247.28 C329.99,276.08 329.4112,310.6309 329.1812,324.2709 " fill="none" id="XesDefinition-to-Deckfour Openxes" style="stroke:#181818;stroke-width:1.0;"/><polygon fill="#181818" points="329.08,330.27,333.2312,321.3387,329.1643,325.2707,325.2323,321.2038,329.08,330.27" style="stroke:#181818;stroke-width:1.0;"/></g><!--link XesMapperExtension to Deckfour Openxes--><g id="link_XesMapperExtension_Deckfour Openxes"><path d="M496.86,247.35 C478.91,257.6 458.68,268.94 440,278.95 C400.05,300.36 356.3505,321.7156 339.9905,329.6356 " fill="none" id="XesMapperExtension-to-Deckfour Openxes" style="stroke:#181818;stroke-width:1.0;"/><polygon fill="#181818" points="334.59,332.25,344.4336,331.9287,339.0904,330.0713,340.9477,324.7281,334.59,332.25" style="stroke:#181818;stroke-width:1.0;"/></g><!--SRC=[ZPBDQiCm48JlVeh5TzzB2GQJ-52eIKXxo5N8wo0IxmfBAgObxrx9FtLid1ATX7Q-qQnMaclDX6GXPcrLhRuniPoqQ6BOR0hnXGG5b-wAQGe_KGH-oOdP3mpahUR61kOWv4MSWrmO6EizgFiInAVy0mgXjQ9pFBhEdKzeTbWfKbOnUTUyjKWcx2j7CXocwJeMVB6PzF-mjsK_OznFzaQPrbSbnH1WotKjg7nNX4T7X8ttwEY7J9AaVqLu1MVm2M2bWHvzXhnxiRlxmc3O-M5jHUse5F0onSeERt6OqpZx8ngRQJNdTYWl5Rl6OqZXPypxw6vV6dIAUQGWM_4QXCkk7wXlqIy0]--></g></svg>