<?xml version="1.0" encoding="us-ascii" standalone="no"?>
<svg xmlns="http://www.w3.org/2000/svg" contentStyleType="text/css" height="613px" preserveAspectRatio="none"
     style="width:766px;height:613px;background:#FFFFFF;" version="1.1" viewBox="0 0 766 613" width="766px"
     zoomAndPan="magnify"><defs/><g><!--cluster Optimize Export--><g id="cluster_Optimize Export"><rect fill="none" height="565.91" rx="2.5" ry="2.5" style="stroke:#181818;stroke-width:1.0;" width="666.5" x="7" y="41.9414"/><rect fill="none" height="10" style="stroke:#181818;stroke-width:1.0;" width="15" x="653.5" y="46.9414"/><rect fill="none" height="2" style="stroke:#181818;stroke-width:1.0;" width="4" x="651.5" y="48.9414"/><rect fill="none" height="2" style="stroke:#181818;stroke-width:1.0;" width="4" x="651.5" y="52.9414"/><text fill="#000000" font-family="sans-serif" font-size="14" font-style="italic" lengthAdjust="spacing" textLength="70" x="305.25" y="68.4766">&#171;Package&#187;</text><text fill="#000000" font-family="sans-serif" font-size="14" font-weight="bold" lengthAdjust="spacing" textLength="118" x="281.25" y="84.9648">Optimize Export</text></g><text fill="#000000" font-family="sans-serif" font-size="14" lengthAdjust="spacing" textLength="4" x="231" y="20.9883">&#160;</text><rect fill="#F1F1F1" height="12" style="stroke:#181818;stroke-width:1.5;" width="12" x="227" y="35.9414"/><!--entity OptimizeDataQuery--><g id="elem_OptimizeDataQuery"><rect fill="#F1F1F1" height="62.9766" rx="2.5" ry="2.5" style="stroke:#181818;stroke-width:0.5;" width="174" x="119" y="108.9414"/><rect fill="#F1F1F1" height="10" style="stroke:#181818;stroke-width:0.5;" width="15" x="273" y="113.9414"/><rect fill="#F1F1F1" height="2" style="stroke:#181818;stroke-width:0.5;" width="4" x="271" y="115.9414"/><rect fill="#F1F1F1" height="2" style="stroke:#181818;stroke-width:0.5;" width="4" x="271" y="119.9414"/><text fill="#000000" font-family="sans-serif" font-size="14" font-style="italic" lengthAdjust="spacing" textLength="90" x="156" y="142.4766">&#171;Usecase: In&#187;</text><text fill="#000000" font-family="sans-serif" font-size="14" lengthAdjust="spacing" textLength="134" x="134" y="158.9648">OptimizeDataQuery</text></g><!--entity RawDataQuery--><g id="elem_RawDataQuery"><rect fill="#F1F1F1" height="62.9766" rx="2.5" ry="2.5" style="stroke:#181818;stroke-width:0.5;" width="142" x="427" y="248.9214"/><rect fill="#F1F1F1" height="10" style="stroke:#181818;stroke-width:0.5;" width="15" x="549" y="253.9214"/><rect fill="#F1F1F1" height="2" style="stroke:#181818;stroke-width:0.5;" width="4" x="547" y="255.9214"/><rect fill="#F1F1F1" height="2" style="stroke:#181818;stroke-width:0.5;" width="4" x="547" y="259.9214"/><text fill="#000000" font-family="sans-serif" font-size="14" font-style="italic" lengthAdjust="spacing" textLength="102" x="442" y="282.4566">&#171;Usecase: Out&#187;</text><text fill="#000000" font-family="sans-serif" font-size="14" lengthAdjust="spacing" textLength="100" x="443" y="298.9448">RawDataQuery</text></g><!--entity OptimizeData--><g id="elem_OptimizeData"><rect fill="#F1F1F1" height="62.9766" rx="2.5" ry="2.5" style="stroke:#181818;stroke-width:0.5;" width="153" x="239.5" y="248.9214"/><rect fill="#F1F1F1" height="10" style="stroke:#181818;stroke-width:0.5;" width="15" x="372.5" y="253.9214"/><rect fill="#F1F1F1" height="2" style="stroke:#181818;stroke-width:0.5;" width="4" x="370.5" y="255.9214"/><rect fill="#F1F1F1" height="2" style="stroke:#181818;stroke-width:0.5;" width="4" x="370.5" y="259.9214"/><text fill="#000000" font-family="sans-serif" font-size="14" font-style="italic" lengthAdjust="spacing" textLength="113" x="254.5" y="282.4566">&#171;Domain Model&#187;</text><text fill="#000000" font-family="sans-serif" font-size="14" lengthAdjust="spacing" textLength="93" x="264.5" y="298.9448">OptimizeData</text></g><!--entity ProcessInstance--><g id="elem_ProcessInstance"><rect fill="#F1F1F1" height="62.9766" rx="2.5" ry="2.5" style="stroke:#181818;stroke-width:0.5;" width="153" x="119.5" y="388.9014"/><rect fill="#F1F1F1" height="10" style="stroke:#181818;stroke-width:0.5;" width="15" x="252.5" y="393.9014"/><rect fill="#F1F1F1" height="2" style="stroke:#181818;stroke-width:0.5;" width="4" x="250.5" y="395.9014"/><rect fill="#F1F1F1" height="2" style="stroke:#181818;stroke-width:0.5;" width="4" x="250.5" y="399.9014"/><text fill="#000000" font-family="sans-serif" font-size="14" font-style="italic" lengthAdjust="spacing" textLength="113" x="134.5" y="422.4366">&#171;Domain Model&#187;</text><text fill="#000000" font-family="sans-serif" font-size="14" lengthAdjust="spacing" textLength="109" x="136.5" y="438.9248">ProcessInstance</text></g><!--entity FlowNodeInstance--><g id="elem_FlowNodeInstance"><rect fill="#F1F1F1" height="62.9766" rx="2.5" ry="2.5" style="stroke:#181818;stroke-width:0.5;" width="165" x="78.5" y="528.8714"/><rect fill="#F1F1F1" height="10" style="stroke:#181818;stroke-width:0.5;" width="15" x="223.5" y="533.8714"/><rect fill="#F1F1F1" height="2" style="stroke:#181818;stroke-width:0.5;" width="4" x="221.5" y="535.8714"/><rect fill="#F1F1F1" height="2" style="stroke:#181818;stroke-width:0.5;" width="4" x="221.5" y="539.8714"/><text fill="#000000" font-family="sans-serif" font-size="14" font-style="italic" lengthAdjust="spacing" textLength="113" x="99.5" y="562.4066">&#171;Domain Model&#187;</text><text fill="#000000" font-family="sans-serif" font-size="14" lengthAdjust="spacing" textLength="125" x="93.5" y="578.8948">FlowNodeInstance</text></g><!--entity DownloadService--><g id="elem_DownloadService"><rect fill="#F1F1F1" height="62.9766" rx="2.5" ry="2.5" style="stroke:#181818;stroke-width:0.5;" width="159" x="22.5" y="248.9214"/><rect fill="#F1F1F1" height="10" style="stroke:#181818;stroke-width:0.5;" width="15" x="161.5" y="253.9214"/><rect fill="#F1F1F1" height="2" style="stroke:#181818;stroke-width:0.5;" width="4" x="159.5" y="255.9214"/><rect fill="#F1F1F1" height="2" style="stroke:#181818;stroke-width:0.5;" width="4" x="159.5" y="259.9214"/><text fill="#000000" font-family="sans-serif" font-size="14" font-style="italic" lengthAdjust="spacing" textLength="119" x="37.5" y="282.4566">&#171;Domain Service&#187;</text><text fill="#000000" font-family="sans-serif" font-size="14" lengthAdjust="spacing" textLength="117" x="38.5" y="298.9448">DownloadService</text></g><!--entity OptimizeRawDataQueryService--><g id="elem_OptimizeRawDataQueryService"><rect fill="#F1F1F1" height="62.9766" rx="2.5" ry="2.5" style="stroke:#181818;stroke-width:0.5;" width="250" x="319" y="388.9014"/><rect fill="#F1F1F1" height="10" style="stroke:#181818;stroke-width:0.5;" width="15" x="549" y="393.9014"/><rect fill="#F1F1F1" height="2" style="stroke:#181818;stroke-width:0.5;" width="4" x="547" y="395.9014"/><rect fill="#F1F1F1" height="2" style="stroke:#181818;stroke-width:0.5;" width="4" x="547" y="399.9014"/><text fill="#000000" font-family="sans-serif" font-size="14" font-style="italic" lengthAdjust="spacing" textLength="69" x="404.5" y="422.4366">&#171;Adapter&#187;</text><text fill="#000000" font-family="sans-serif" font-size="14" lengthAdjust="spacing" textLength="210" x="334" y="438.9248">OptimizeRawDataQueryService</text></g><!--entity OptimizeBearerTokenService--><g id="elem_OptimizeBearerTokenService"><rect fill="#F1F1F1" height="62.9766" rx="2.5" ry="2.5" style="stroke:#181818;stroke-width:0.5;" width="237" x="278.5" y="528.8714"/><rect fill="#F1F1F1" height="10" style="stroke:#181818;stroke-width:0.5;" width="15" x="495.5" y="533.8714"/><rect fill="#F1F1F1" height="2" style="stroke:#181818;stroke-width:0.5;" width="4" x="493.5" y="535.8714"/><rect fill="#F1F1F1" height="2" style="stroke:#181818;stroke-width:0.5;" width="4" x="493.5" y="539.8714"/><text fill="#000000" font-family="sans-serif" font-size="14" font-style="italic" lengthAdjust="spacing" textLength="69" x="357.5" y="562.4066">&#171;Adapter&#187;</text><text fill="#000000" font-family="sans-serif" font-size="14" lengthAdjust="spacing" textLength="197" x="293.5" y="578.8948">OptimizeBearerTokenService</text></g><text fill="#000000" font-family="sans-serif" font-size="14" lengthAdjust="spacing" textLength="171" x="588" y="579.8966">Camunda 8 Optimize API</text><rect fill="#F1F1F1" height="12" style="stroke:#181818;stroke-width:1.5;" width="12" x="667.5" y="554.3614"/><!--reverse link OptimizeData to ProcessInstance--><g id="link_OptimizeData_ProcessInstance"><path d="M285.1335,316.8996 C265.3735,339.6296 242.58,365.8214 222.84,388.5214 " fill="none" id="OptimizeData-backto-ProcessInstance" style="stroke:#181818;stroke-width:1.0;"/><polygon fill="#181818" points="289.07,312.3714,280.1465,316.5393,285.7896,316.1449,286.184,321.7879,289.07,312.3714" style="stroke:#181818;stroke-width:1.0;"/></g><!--reverse link ProcessInstance to FlowNodeInstance--><g id="link_ProcessInstance_FlowNodeInstance"><path d="M186.6731,458.1668 C180.9031,480.8868 174.59,505.8014 168.83,528.5014 " fill="none" id="ProcessInstance-backto-FlowNodeInstance" style="stroke:#181818;stroke-width:1.0;"/><polygon fill="#181818" points="188.15,452.3514,182.0577,460.0899,186.9193,457.1976,189.8116,462.0591,188.15,452.3514" style="stroke:#181818;stroke-width:1.0;"/></g><!--reverse link OptimizeDataQuery to DownloadService--><g id="link_OptimizeDataQuery_DownloadService"><path d="M179.0479,177.1923 C161.9179,199.9123 142.37,225.8514 125.26,248.5514 " fill="none" id="OptimizeDataQuery-backto-DownloadService" style="stroke:#181818;stroke-width:1.0;"/><polygon fill="#181818" points="182.66,172.4014,174.0479,177.1796,179.6499,176.3938,180.4357,181.9958,182.66,172.4014" style="stroke:#181818;stroke-width:1.0;"/><text fill="#000000" font-family="sans-serif" font-size="13" lengthAdjust="spacing" textLength="74" x="161" y="215.4898">implements</text></g><!--link DownloadService to OptimizeData--><g id="link_DownloadService_OptimizeData"><path d="M181.99,280.4114 C200.75,280.4114 214.69,280.4114 233.3,280.4114 " fill="none" id="DownloadService-to-OptimizeData" style="stroke:#181818;stroke-width:1.0;"/><polygon fill="#181818" points="239.3,280.4114,230.3,276.4114,234.3,280.4114,230.3,284.4114,239.3,280.4114" style="stroke:#181818;stroke-width:1.0;"/><text fill="#000000" font-family="sans-serif" font-size="13" lengthAdjust="spacing" textLength="22" x="199.5" y="273.9798">use</text></g><!--link DownloadService to RawDataQuery--><g id="link_DownloadService_RawDataQuery"><path d="M161.86,248.5014 C215.94,223.7114 297.74,196.2214 369,213.5914 C397.43,220.5114 421.3985,231.8563 444.7785,245.5063 " fill="none" id="DownloadService-to-RawDataQuery" style="stroke:#181818;stroke-width:1.0;"/><polygon fill="#181818" points="449.96,248.5314,444.2044,240.5393,445.642,246.0104,440.1709,247.448,449.96,248.5314" style="stroke:#181818;stroke-width:1.0;"/><text fill="#000000" font-family="sans-serif" font-size="13" lengthAdjust="spacing" textLength="22" x="346" y="215.4898">use</text></g><!--link inputPort to OptimizeDataQuery--><g id="link_inputPort_OptimizeDataQuery"><path d="M231.47,48.4114 C228.28,59.8114 222.3284,81.1038 216.2584,102.7738 " fill="none" id="inputPort-to-OptimizeDataQuery" style="stroke:#181818;stroke-width:1.0;"/><polygon fill="#181818" points="214.64,108.5514,220.9193,100.9639,215.9886,103.7367,213.2158,98.8061,214.64,108.5514" style="stroke:#181818;stroke-width:1.0;"/></g><!--reverse link RawDataQuery to OptimizeRawDataQueryService--><g id="link_RawDataQuery_OptimizeRawDataQueryService"><path d="M424.3535,315.9423 C413.4435,323.9523 408.47,330.1714 402,341.9014 C393.57,357.1714 400.98,374.2114 411.79,388.4114 " fill="none" id="RawDataQuery-backto-OptimizeRawDataQueryService" style="stroke:#181818;stroke-width:1.0;"/><polygon fill="#181818" points="429.19,312.3914,419.5681,314.4934,425.1596,315.3505,424.3026,320.942,429.19,312.3914" style="stroke:#181818;stroke-width:1.0;"/><text fill="#000000" font-family="sans-serif" font-size="13" lengthAdjust="spacing" textLength="74" x="403" y="355.4698">implements</text></g><!--link OptimizeRawDataQueryService to OptimizeBearerTokenService--><g id="link_OptimizeRawDataQueryService_OptimizeBearerTokenService"><path d="M409.69,452.0614 C402.09,460.8514 395.08,471.0314 391,481.8714 C385.44,496.6514 385.2145,508.1963 387.6945,522.7863 " fill="none" id="OptimizeRawDataQueryService-to-OptimizeBearerTokenService" style="stroke:#181818;stroke-width:1.0;"/><polygon fill="#181818" points="388.7,528.7014,391.1353,519.1584,387.8621,523.7721,383.2484,520.499,388.7,528.7014" style="stroke:#181818;stroke-width:1.0;"/><text fill="#000000" font-family="sans-serif" font-size="13" lengthAdjust="spacing" textLength="22" x="392" y="495.4398">use</text></g><!--link OptimizeRawDataQueryService to optimizeRestApi--><g id="link_OptimizeRawDataQueryService_optimizeRestApi"><path d="M495.62,452.3514 C553.63,487.1514 637.785,537.6344 662.385,552.3944 " fill="none" id="OptimizeRawDataQueryService-to-optimizeRestApi" style="stroke:#181818;stroke-width:1.0;"/><polygon fill="#181818" points="667.53,555.4814,661.8705,547.421,663.2425,552.9089,657.7546,554.2809,667.53,555.4814" style="stroke:#181818;stroke-width:1.0;"/></g><!--link OptimizeBearerTokenService to optimizeRestApi--><g id="link_OptimizeBearerTokenService_optimizeRestApi"><path d="M515.82,560.3614 C579.09,560.3614 642.03,560.3614 661.57,560.3614 " fill="none" id="OptimizeBearerTokenService-to-optimizeRestApi" style="stroke:#181818;stroke-width:1.0;"/><polygon fill="#181818" points="667.57,560.3614,658.57,556.3614,662.57,560.3614,658.57,564.3614,667.57,560.3614" style="stroke:#181818;stroke-width:1.0;"/></g><!--SRC=[ZPFBRiCW44Nt_efHDbrvNqMHfRHffIpQkAyF6E5HXM830bpteVvx2I69ZObJUmLpxjoP0PXib1GaBCmsolA6VnFSVIgfxGmMYnBP5j-fAE0doy1zkm0NC7C_6k12jRPqM_lW5RmPOcZ8hzWnyo7n2Yq-jQI_NEP0pc4jYYBYdx5BeflMEZPOhMI3N0mMy20hgYVCNR8-EJ8kjMHap5eOYuBH9Vo-bjsZYvpdlM1OGPx7DXuQMJikpZzi7Lv8Vt0M3tibEr5Bh4BqL5FOI5KL9kqiO_KSUADgQbncusKna1V3_kRGXlDFa8E3tPEXfMM5of8-StPztQcle1aToq5rGwX9lyejYPJ8guut6FAe4s-sXuRtqKrfggxHnARWlccYtDw8TWzFjkwLtcBJYWhX-YY4PRdspr4UdCZOfUBPl-nZKL-JA2ab-St-0000]--></g></svg>